<?xml version="1.0" encoding="UTF-8"?>
<svg id="uuid-8d5c6eb8-c5f8-435c-8f23-607fb5effa59" data-name="Layer 2" xmlns="http://www.w3.org/2000/svg" width="238.9" height="50.4" viewBox="0 0 238.9 50.4">
  <defs>
    <style>
      .uuid-31becc8b-9542-4a05-9461-7d49183001e9 {
        stroke: #000;
        stroke-miterlimit: 10;
        stroke-width: 9px;
      }
    </style>
  </defs>
  <g id="uuid-b4d43405-a4d2-455f-b7d0-677701763281" data-name="Capa 1">
    <g>
      <path class="uuid-31becc8b-9542-4a05-9461-7d49183001e9" d="M234.4,15.7c-4.8,.2-9.5,.4-14.3,.6-1.8,0-3.5,0-5.3,.1-5.6,.3-11.2,.6-16.7,1.2-20.9,2.2-41.8,1.2-62.7,1.1-24.4,0-48.8-.1-73.2,0-3.6,0-7.2,.2-10.9,.7-2.2,.3-4.3,1.8-6.4,2-2.4,.2-4.7-.4-7.1-.7-.2,0-.5-.7-.5-1.2,0-2.6-.6-2.2-1.2-2.1-5,.6-9.9,1.2-14.9,1.9-1.4,.2-2.7,.7-4.2,1.2v-4c.5,0,.9-.1,1.3-.2,3.4-.3,6.8-.5,10.2-.8,5.2-.5,10.5-1.2,15.7-1.7,6.3-.6,12.6-1.3,18.9-1.7,10.2-.7,20.4-1.2,30.6-1.7,8.7-.4,17.3-.9,26-1.2,18.8-.6,37.5-1.1,56.3-1.7,13-.4,26.1-1,39.1-1.5,2.7-.1,5.3-.1,8-.3,3.8-.2,7.5-.6,11.3-.9v3.4c-.3,0-.5-.2-.8-.2-6,.4-12.1,.7-18.1,1.1-6.3,.4-12.7,.9-19,1.1-18.7,.6-37.3,1.1-56,1.7-16.7,.5-33.5,1.1-50.2,1.7-5.8,.2-11.7,.3-17.5,.6-3.7,.2-7.4,.6-11,.9v.7c2.8,0,5.7,0,8.5,0,17.7,0,35.3,0,53,0,27.3,.1,54.5,1.2,81.8-1.3,6.2-.6,12.5-.4,18.7-.8,3.5-.2,7.1-.8,10.6-1.1v2.8Zm-174.9,.1v.5h-12.3v.7l12.3-1.2Z"/>
      <path class="uuid-31becc8b-9542-4a05-9461-7d49183001e9" d="M234.4,26.5c-4.1,.1-8.3,.3-12.4,.4-7.1,.1-14.3,.1-21.4,.3-16.2,.5-32.4,1.1-48.6,1.7-13.7,.5-27.3,1.1-41,1.7-7.6,.3-15.2,.8-22.7,1.2-13.2,.6-26.4,1.1-39.6,1.7-8.7,.4-17.3,1.1-26,1.7-.7,0-1.4,.7-2,.7-.8,0-1.5-.5-2.3-.8v-1.2c.3-.3,.6-.7,1-.7,2.8-.2,5.5-.4,8.3-.6,6.7-.4,13.4-.9,20.1-1.2,15.3-.6,30.6-1.1,45.8-1.7,6.2-.2,12.3-.8,18.5-1,6.7-.3,13.3-.4,20-.6,9.9-.4,19.7-.9,29.6-1.3,5.1-.2,10.3-.3,15.4-.4,13.5-.5,27-1,40.6-1.4,5.6-.2,11.2,0,16.9,0v1.7Z"/>
      <path class="uuid-31becc8b-9542-4a05-9461-7d49183001e9" d="M234.4,36.2c-3.2,.2-6.5,.4-9.7,.6-4.9,.4-9.7,.9-14.6,1.2-8.6,.5-17.2,1.1-25.8,1.4-6.8,.3-13.7,.2-20.5,.4-19.8,.5-39.6,1-59.4,1.6-16.6,.5-33.3,1.2-49.9,1.8-9.5,.4-19,1-28.6,1.4-.6,0-1.3-.3-1.9-.5v-1c.4-.3,.8-.7,1.2-.8,4.6-.3,9.2-.8,13.8-.9,17-.4,34-.7,51-1.1,21.9-.5,43.7-1.1,65.6-1.7,7.8-.2,15.5-.7,23.3-1.1,10.7-.5,21.3-1.1,32-1.7,7.4-.4,14.9-1,22.3-1.5,.4,0,.8,0,1.1,0v1.7Z"/>
      <path class="uuid-31becc8b-9542-4a05-9461-7d49183001e9" d="M5.5,45.9l-.4-3.4c1.6,0,3.1,0,4.6,0,.2,0,.5,.6,.7,.9l-.6,2.5H5.5Z"/>
      <path class="uuid-31becc8b-9542-4a05-9461-7d49183001e9" d="M234.4,18.5h-6.4v-1.1h6.4v1.1Z"/>
      <path class="uuid-31becc8b-9542-4a05-9461-7d49183001e9" d="M59.4,15.8l-12.3,1.2v-.7h12.3v-.5Z"/>
    </g>
  </g>
</svg>