<?xml version="1.0" encoding="UTF-8"?>
<svg id="uuid-8bde9b56-c676-4c67-968b-24f5058ca871" data-name="Layer 2" xmlns="http://www.w3.org/2000/svg" width="235.6" height="236.1" viewBox="0 0 235.6 236.1">
  <defs>
    <style>
      .uuid-cfba4261-6d27-4f43-880a-321b60b75b96 {
        fill: none;
        stroke: #fff;
        stroke-linecap: round;
        stroke-linejoin: round;
        stroke-width: 3px;
      }
    </style>
  </defs>
  <g id="uuid-ac7e90a1-90bf-4b35-ba74-c909d08a776a" data-name="Capa 1">
    <g>
      <path class="uuid-cfba4261-6d27-4f43-880a-321b60b75b96" d="M138.6,118.7c-5-1.4-10.1-2.1-15.2-3.1-2.1-.4-4.2-.8-6.4-.4-.5,0-1.1,.1-1.7-.2"/>
      <path class="uuid-cfba4261-6d27-4f43-880a-321b60b75b96" d="M197.2,208.3c.6,3.3-.9,6.4-1.2,9.6-.3,3.7-1.1,7.4-1.6,11.1-.2,1.8-.3,3.8,.5,5.6"/>
      <path class="uuid-cfba4261-6d27-4f43-880a-321b60b75b96" d="M42.1,109c-1.3-.5-2.6-.5-3.9-.6-4.6-.1-9.1,.2-13.7,.4-5.5,.2-10.9-.6-16.3-.9"/>
      <path class="uuid-cfba4261-6d27-4f43-880a-321b60b75b96" d="M177.8,165.8c-.5,1.2,0,2.5,0,3.7,.4,2.9,.5,5.7,.7,8.6,.5,7.6,.7,15.1,.8,22.7,0,2,0,4,0,6"/>
      <path class="uuid-cfba4261-6d27-4f43-880a-321b60b75b96" d="M181,18.6c-4.1,3.4-8.2,6.7-12,10.5-1.1,1.1-1.6,2.3-1.5,3.8"/>
      <path class="uuid-cfba4261-6d27-4f43-880a-321b60b75b96" d="M114.8,115c-3.9-1.5-8.1-1.5-12.2-2.2-3.6-.7-7.4-.8-11-1.4-3.2-.5-6.5-.8-9.7-1.1-2.9-.3-5.7-.4-8.6,0-1.3,.2-2.7-.5-4.1-.8-2.4-.5-4.9-.3-7.3-.5-4.3-.4-8.6,0-12.9-.1-2.2,0-4.4-.7-6.6,0"/>
      <path class="uuid-cfba4261-6d27-4f43-880a-321b60b75b96" d="M148,146.9c.6,5.7,1.2,11.4,1.9,17.1,.6,4.3,1,8.6,1.6,12.9,.4,3.1,.7,6.2,1,9.4,0,.4-.2,.9-.4,1.3"/>
      <path class="uuid-cfba4261-6d27-4f43-880a-321b60b75b96" d="M155.9,42.3c-3.1-.5-4.6,2-6.7,3.4-3.7,2.5-6.7,5.8-10.1,8.6"/>
      <path class="uuid-cfba4261-6d27-4f43-880a-321b60b75b96" d="M78.4,54.4c.1,4.9-.2,9.9-.6,14.8-.4,4.7-.4,9.4-.5,14.1-.1,4.1-.1,8.1-.2,12.2"/>
      <path class="uuid-cfba4261-6d27-4f43-880a-321b60b75b96" d="M146.1,122.3c2.2,1.1,3.2,3.3,4.5,5.1,6.7,9.4,13.8,18.4,21.4,27,1.9,2.1,3.7,4.2,5.7,6.3,.7,.7,1.3,1.6,2.4,1.7"/>
      <path class="uuid-cfba4261-6d27-4f43-880a-321b60b75b96" d="M55.8,54.4c0,3.8-1,7.5-1.4,11.3-.4,2.9-.9,5.7-1.3,8.6-.6,4.8-1.4,9.5-2,14.3-.2,2.1-.9,4.1-.9,6.2"/>
      <path class="uuid-cfba4261-6d27-4f43-880a-321b60b75b96" d="M46,54.4c0,2.9-1.2,5.6-1.7,8.4-1,5.9-2.9,11.5-3.6,17.4-.5,3.8-1.5,7.6-2.2,11.4"/>
      <path class="uuid-cfba4261-6d27-4f43-880a-321b60b75b96" d="M73,110.7c-.4,.5-.2,1.1-.2,1.7,0,2,0,3.9-1.4,5.7-1.8,2.1-1.9,5.2-3.2,7.6-1.5,2.8-3.2,5.4-5.4,7.7-5.1,5.4-12,4.6-16-1.9-2.2-3.5-3.4-7.4-4.1-11.5-.2-.9-.5-1.8-.8-2.6"/>
      <path class="uuid-cfba4261-6d27-4f43-880a-321b60b75b96" d="M111.1,54.4c0,3.1,.7,6.1,.9,9.2,.4,5.1,.7,10.3,1.1,15.4,.6,6.7,1.1,13.4,2.2,20.1,.5,3,.9,6,1.4,9,.2,1,0,1.9-.3,2.6-.8,1.4-1,2.9-1.4,4.4"/>
      <path class="uuid-cfba4261-6d27-4f43-880a-321b60b75b96" d="M41.7,145.2c-.4,2,0,4,0,6,0,7.6,0,15.1,0,22.7,0,6.4,0,12.9,.3,19.3,.1,3.1,.1,6.1-.2,9.2"/>
      <path class="uuid-cfba4261-6d27-4f43-880a-321b60b75b96" d="M80.1,142.5c-2.9,.6-5.9,.5-8.8,1.2-1.3,.3-2.6,.4-3.9,.4-3.1-.2-6.3,.6-9.4,.3-4.5-.4-8.9,0-13.3,.1-1.9,0-3.9,.1-5.8,.1"/>
      <path class="uuid-cfba4261-6d27-4f43-880a-321b60b75b96" d="M15.5,133.9c-.5,1.5-.6,3-.1,4.5,0,.3,.2,.6,.1,.9-.1,4.2,.3,8.4,.3,12.6,0,5.4,.4,10.9,.5,16.3,.2,7.1,.4,14.1,.8,21.2,.3,4.9,0,9.8,.6,14.6"/>
      <path class="uuid-cfba4261-6d27-4f43-880a-321b60b75b96" d="M102.4,54.3c-.2,18.8,.3,37.6,2.8,56.2"/>
      <path class="uuid-cfba4261-6d27-4f43-880a-321b60b75b96" d="M78.3,143.1c.7,1.2,.2,2.5,.2,3.7,.1,4.6,0,9.1-.4,13.7-.4,4.4-.3,8.9-.8,13.3-.3,3.1-.3,6.1-.3,9.2,0,4.9-.7,9.9-.4,14.8,.2,3.7,.1,7.5,.2,11.2"/>
      <path class="uuid-cfba4261-6d27-4f43-880a-321b60b75b96" d="M90.6,54.4c0,10.3-.5,20.6-1,30.9-.2,5.9,0,11.7-.2,17.6"/>
      <path class="uuid-cfba4261-6d27-4f43-880a-321b60b75b96" d="M32.9,54.4c.3,3.5-1.3,6.6-1.9,9.9-1.9,10-5.3,19.5-8.6,29.1-.9,2.5-1.8,5-2.3,7.7"/>
      <path class="uuid-cfba4261-6d27-4f43-880a-321b60b75b96" d="M1.6,229.7c.5,0,1.3,.2,1.1-.7-.8-4-.2-8-.3-12,0-1.8,0-3.6,0-5.4,0-1.9,.6-2.4,2.4-2.4,1,0,2,.2,3,.2,24,0,48-.1,72,0,10.4,0,20.7,0,31.1,.2,9.4,.2,18.7,.1,28.1,.1,13.9,0,27.9,0,41.8,0,5.4,0,10.7,.1,16.1,.1"/>
      <path class="uuid-cfba4261-6d27-4f43-880a-321b60b75b96" d="M178.4,165.4c1.4-.9,2.2-2.4,2.8-3.8,1.6-3.8,5.2-5.7,8-8.4,3.4-3.2,6.7-6.5,9.9-10,5.7-6.1,10.6-12.7,15.1-19.7,5.1-8,9.4-16.4,12.7-25.3,3.4-8.8,5.6-18,6.7-27.4,.7-6,.7-12,0-18-.9-9.1-3.2-17.7-7.7-25.7-6.2-11.1-15.5-18.6-27.4-22.8-3.8-1.3-7.9-2-12-2.6-11.4-1.4-22,1.3-32.4,5.3-7.2,2.8-13.7,6.7-19.3,12.1-5.5,5.3-9.5,11.8-11.7,19.3-1.3,4.3-1.9,8.7-2.1,13.1-.6,13.9,3.2,26.8,8.5,39.4,4.1,9.7,9.1,18.8,15,27.6,.5,.8,.9,1.6,1.2,2.6,.1,.4,.3,.9,.1,1.1-2.6,3-3.7,6.9-6.2,10-1.2,1.5-2.5,3-4.1,4.1-4,2.7-8.1,2.3-11.5-1.5-3.6-4-5.2-8.9-6.5-13.9-.5-1.9-.8-3.9-1.7-5.6"/>
      <path class="uuid-cfba4261-6d27-4f43-880a-321b60b75b96" d="M153.2,187.8c-6.7,.4-13.4,.4-20.1,.8-4.2,.2-8.4,.3-12.6,.4-6.3,0-12.5,.7-18.7,.4-.2,0-.4,0-.6,0-3.1,.8-4.2-.3-3.6-3.6,.4-2,.3-4.1,.5-6.2,.5-8,1.2-16,1.8-24,.3-3.9,.2-7.9,1.2-12.3,15.6,.8,31.3,1.7,47.2,3,0-.1,0-.6,0-1"/>
      <path class="uuid-cfba4261-6d27-4f43-880a-321b60b75b96" d="M66.3,54.3c0,4.9-.8,9.7-1.1,14.6-.1,2.2-.3,4.4-.5,6.5-.5,4.4-.5,8.8-.9,13.1-.2,2.6-.5,5.1-.5,7.7"/>
      <path class="uuid-cfba4261-6d27-4f43-880a-321b60b75b96" d="M156.1,42.3c-.1,1.4-.6,2.5-1.2,3.8-4.9,9.7-5.1,19.6,.3,29.2,4.3,7.5,10.8,12.3,19.3,14.1,9.3,2,17.7-.1,25.1-6.2,5.7-4.6,9.1-10.6,10.3-17.8,1.5-8.7-.7-16.4-6-23.2-4.5-5.8-10.4-9.2-17.6-10.7-4.6-.9-9-.6-13.5,.6-1.4,.4-2.6,1.1-4.1,.9-.9,0-1.6,.2-2.2,.8-3.2,3.1-6.9,5.4-10.1,8.4"/>
      <path class="uuid-cfba4261-6d27-4f43-880a-321b60b75b96" d="M158.9,230.3c-6.4,0-12.7-1-19.1-1.1-4.8-.1-9.5-1-14.2-.8-4.2,.2-8.4-.6-12.6-.3-3.8,.2-7.6,.5-11.4,.3-3-.2-5.9-.1-8.8,0-5.6,.5-11.1,0-16.7,.4-3.9,.2-7.9,.4-11.8,.5-14.2,.2-28.5,0-42.7,.3-3.2,0-6.5,.4-9.7,.2-3-.2-6-.3-9-.3"/>
      <path class="uuid-cfba4261-6d27-4f43-880a-321b60b75b96" d="M115.6,53.9c-1.4-.2-2.8-.5-4.1,.2-.8,.4-1.2-.4-1.9-.4-2,0-4-.2-6,0-.9,.1-1.8,0-2.6,0-3.3,0-6.6,.1-9.9,.4-1.7,.2-3.5-.3-5.2-.3-9.2,0-18.4,0-27.6,0h-9.4c-4.4,0-8.8-.2-13.1,0-3,.2-6-.2-9,0-3.4,.1-4,.5-5.3,4-6,16.4-12.1,32.7-18.2,49.1-3,3.7-1.6,7.5-.3,11.2,1.5,4.7,3.8,8.9,7.6,12.2,1.4,1.3,3.1,2.3,4.7,3.1,1.3,.6,3.1,.3,4.6,.3,4.3,0,7.8-2,10.9-4.8,3.1-2.8,5.5-6,7.4-9.7,.6-1.1,1.3-2.4,2.8-2.7"/>
    </g>
  </g>
</svg>