<?xml version="1.0" encoding="UTF-8"?>
<svg id="uuid-8413244d-0e87-40f6-9069-9c7b2b6f7083" data-name="Layer 2" xmlns="http://www.w3.org/2000/svg" width="66.6" height="49.3" viewBox="0 0 66.6 49.3">
  <defs>
    <style>
      .uuid-4dd029e0-ac48-4f46-b78c-fe1d9691cad1 {
        fill: #020202;
      }

      .uuid-945defcb-71ad-4f54-a5ee-b6d8dfa633aa {
        fill: #d62323;
      }

      .uuid-650619df-54e4-49fd-80a7-7834def71b65 {
        fill: #444243;
      }

      .uuid-03dc6f07-4390-4886-b8b3-bed5f6415abc {
        fill: #010101;
      }
    </style>
  </defs>
  <g id="uuid-fb5acbe1-922d-48c4-b86c-6a8468363c06" data-name="Capa 1">
    <g>
      <rect class="uuid-945defcb-71ad-4f54-a5ee-b6d8dfa633aa" x="12.8" y="0" width="53.8" height="42" rx="15.5" ry="15.5"/>
      <g>
        <path d="M0,28.7c0-1,0-1.9,0-2.9,0-.7,0-1.3,0-2,0-.7,0-1.5,.1-2.2,0-.9,.1-1.8,.2-2.7,.2-1.4,.4-2.7,.9-4,.7-1.8,1.7-3.4,3.4-4.4,.9-.6,2-1,3-1.2,.9-.2,1.8-.3,2.7-.4,.4,0,.8,0,1.1-.1,.5,0,1,.4,1.1,1,0,.4-.3,1-.8,1.1-.3,0-.7,.1-1.1,.2-.9,.1-1.8,.2-2.6,.4-.9,.2-1.8,.5-2.6,1-1,.7-1.7,1.7-2.1,2.8-.3,.8-.5,1.7-.7,2.6,0,.6-.1,1.2-.2,1.8,0,.9-.1,1.7-.2,2.6,0,.7-.1,1.4-.1,2.1,0,2.6,0,5.1,0,7.7,0,.8,0,1.7,.1,2.5,0,.6,0,1.2,.1,1.7,0,.7,.1,1.4,.2,2.1,0,.5,.1,.9,.2,1.4,0,.7,.3,1.4,.6,2.1,.3,.8,.8,1.6,1.4,2.2,.4,.4,.9,.7,1.4,1,.9,.5,1.9,.7,2.9,.9,.8,0,1.6,.2,2.5,.3,.8,0,1.7,.2,2.5,.2,.9,0,1.7,.1,2.6,.2,.8,0,1.5,0,2.3,.1,1.5,0,3,0,4.4,.1,3.4,0,6.8,0,10.2,0,1.2,0,2.4,0,3.6,0,.5,0,1,.5,1,1,0,.6-.5,1.1-.9,1.1-1,0-2,0-3,.1-2.5,0-5,0-7.5,0-1,0-1.9,0-2.9,0-.8,0-1.6,0-2.4,0-.7,0-1.5,0-2.2,0-.8,0-1.6,0-2.5-.1-.9,0-1.8-.1-2.8-.2-.7,0-1.4,0-2.1-.2-.9-.1-1.9-.2-2.8-.3-1.1-.2-2.2-.4-3.2-.8-1.4-.5-2.6-1.3-3.6-2.6-.6-.8-1.1-1.7-1.5-2.7-.2-.7-.4-1.5-.5-2.2-.1-.7-.2-1.5-.3-2.2,0-.5,0-1-.1-1.5,0-.8,0-1.7-.1-2.5,0-.6,0-1.1,0-1.7,0-1.2,0-2.4,0-3.6H0Z"/>
        <path d="M21.5,8.1c1,0,1.9,0,2.9,0,2.7,0,5.3,0,8,0,1.3,0,2.7,0,4,.1,.7,0,1.3,0,2,0,.8,0,1.6,0,2.4,.1,.7,0,1.4,0,2.1,.1,1,0,1.9,.1,2.9,.2,1.1,.1,2.2,.3,3.2,.4,.9,.1,1.8,.3,2.6,.6,1.2,.4,2.2,1,3.1,1.9,1.3,1.3,2,2.9,2.4,4.6,.2,.9,.3,1.9,.5,2.9,0,.6,.1,1.2,.2,1.9,0,.8,0,1.7,.1,2.5,0,.9,0,1.7,.1,2.6,0,1.6,0,3.3,0,4.9,0,1,0,2-.1,3,0,.7,0,1.3-.1,2,0,1-.2,1.9-.3,2.9,0,1-.3,1.9-.5,2.8-.4,1.3-.9,2.6-1.8,3.6-.8,.9-1.8,1.7-2.9,2.1-1,.4-2,.7-3.1,.8-.7,0-1.4,.2-2,.3-.3,0-.6,0-.8,0-.4,0-.6-.2-.8-.5-.2-.3-.2-.7,0-1.1,.3-.5,.8-.6,1.3-.7,.8,0,1.7-.2,2.5-.3,.7,0,1.3-.3,1.9-.5,1.3-.6,2.4-1.3,3-2.6,.5-1,.8-2,1-3.2,.1-.9,.2-1.8,.3-2.7,0-.5,0-1.1,.1-1.6,0-.9,0-1.8,.1-2.7,0-.4,0-.7,0-1.1,0-1.6,0-3.2,0-4.8,0-1.2,0-2.3-.1-3.5,0-.7,0-1.3-.1-2,0-1-.2-1.9-.3-2.9,0-1.1-.3-2.2-.8-3.3-.6-1.6-1.8-2.7-3.4-3.3-.9-.3-1.8-.5-2.7-.6-.9-.1-1.7-.2-2.6-.3-.6,0-1.2,0-1.8-.1-.9,0-1.9-.1-2.8-.2-.8,0-1.5,0-2.3-.1-1.2,0-2.4,0-3.5-.1-.8,0-1.6,0-2.4,0-2.4,0-4.7,0-7.1,0-.9,0-1.8,0-2.7,0-.8,0-1.5,0-2.3,0-.5,0-.9-.3-1.1-.7-.2-.4,0-.8,.2-1.1,.3-.3,.6-.4,1-.4,.2,0,.5,0,.7,0h0Z"/>
        <path class="uuid-03dc6f07-4390-4886-b8b3-bed5f6415abc" d="M22.6,28.7c0-2.9,0-5.7,0-8.6,0-.5,.3-1.1,1-1.2,.3,0,.6,.1,.9,.3,1.7,1,3.4,2,5,3.1,1.9,1.2,3.8,2.3,5.7,3.5,1,.7,2.1,1.3,3.1,1.9,.7,.4,.7,1.3,0,1.8-.4,.3-.8,.5-1.2,.8-1.3,.8-2.5,1.6-3.8,2.3-1.1,.7-2.2,1.3-3.2,2-1.1,.7-2.1,1.3-3.2,2-.9,.5-1.8,1.1-2.7,1.6-.8,.4-1.6-.1-1.6-.9,0-2.9,0-5.8,0-8.7h0Zm2.3,6.5s0,0,.1,0c.8-.5,1.6-1,2.4-1.5,1.9-1.2,3.7-2.3,5.6-3.5,.8-.5,1.6-1,2.5-1.5l-10.7-6.6c0,.1,0,.2,0,.2,0,2.4,0,4.7,0,7.1,0,2,0,3.9,0,5.9h0Z"/>
        <path class="uuid-4dd029e0-ac48-4f46-b78c-fe1d9691cad1" d="M17.1,9.5c.1,.6-.5,1.1-1.1,1.1-.5,0-1.1-.6-1.1-1.2,0-.6,.5-1.1,1.1-1.1,.7,0,1.2,.5,1.2,1.1Z"/>
        <path class="uuid-4dd029e0-ac48-4f46-b78c-fe1d9691cad1" d="M41.8,46.7c.7,0,1.2,.5,1.2,1.1,0,.7-.6,1.1-1.1,1.1-.6,0-1.1-.6-1.1-1.2,0-.5,.5-1.1,1.1-1.1Z"/>
        <path class="uuid-650619df-54e4-49fd-80a7-7834def71b65" d="M24.8,35.2h0Z"/>
      </g>
    </g>
  </g>
</svg>