<?xml version="1.0" encoding="UTF-8"?>
<svg id="uuid-59c1f20f-034f-4c1d-8521-f06f2a41bfe3" data-name="Layer 2" xmlns="http://www.w3.org/2000/svg" width="47.4" height="47.4" viewBox="0 0 47.4 47.4">
  <defs>
    <style>
      .uuid-5bd9448d-05c5-4d9f-b17b-bebe7fbc4b13 {
        fill: #fff;
      }

      .uuid-00a46420-c44b-43b9-8a63-35b998dd2082 {
        fill: #d62323;
      }

      .uuid-b052a3b3-e365-47bb-b171-60c37c6c5c98 {
        fill: none;
      }
    </style>
  </defs>
  <g id="uuid-a0d98c24-f257-477e-a162-e4984c9a605a" data-name="Capa 1">
    <g>
      <path class="uuid-00a46420-c44b-43b9-8a63-35b998dd2082" d="M23.7,47.4c-4.1,0-8.2-1.1-11.8-3.2l-9.2,3.2,1.9-9.8C1.6,33.5,0,28.7,0,23.7,0,10.6,10.6,0,23.7,0s23.7,10.6,23.7,23.7-10.6,23.7-23.7,23.7Z"/>
      <g>
        <g>
          <path class="uuid-b052a3b3-e365-47bb-b171-60c37c6c5c98" d="M23.7,9.4c-7.9,0-14.3,6.4-14.3,14.3s1.1,6.4,3,8.8l-1,4.9,4.7-1.6c2.2,1.4,4.8,2.2,7.6,2.2,7.9,0,14.3-6.4,14.3-14.3s-6.4-14.3-14.3-14.3Z"/>
          <path class="uuid-5bd9448d-05c5-4d9f-b17b-bebe7fbc4b13" d="M23.7,39.2c-2.7,0-5.4-.7-7.7-2.1l-6,2.1,1.2-6.4c-1.9-2.7-3-5.8-3-9.1,0-8.5,6.9-15.5,15.5-15.5s15.5,6.9,15.5,15.5-6.9,15.5-15.5,15.5Zm-7.4-4.6l.5,.3c2.1,1.3,4.5,2,7,2,7.3,0,13.2-5.9,13.2-13.2s-5.9-13.2-13.2-13.2-13.2,5.9-13.2,13.2,1,5.8,2.8,8.1l.3,.4-.7,3.5,3.3-1.1Z"/>
        </g>
        <path class="uuid-5bd9448d-05c5-4d9f-b17b-bebe7fbc4b13" d="M15.9,17.7s.9-1.6,1.6-1.7c.7,0,1.7,0,1.9,.4,.3,.5,1.4,3.3,1.4,3.3,0,0,.2,.5-.1,1-.3,.5-1,1.1-1,1.1,0,0-.4,.5,0,1,.4,.5,1,1.5,2.2,2.7,1.2,1.2,3.5,2.1,3.5,2.1,0,0,.3,0,.5-.2,.2-.2,1.4-1.6,1.4-1.6,0,0,.4-.5,1-.2,.6,.3,3.3,1.6,3.3,1.6,0,0,.3,.1,.3,.6s-.2,1.6-.6,2c-.4,.4-1.5,1.6-3.2,1.6s-5.8-1.4-7.9-3.5c-2.2-2.2-4.1-4.4-4.5-6.3-.5-2-.4-2.9,.2-3.7Z"/>
      </g>
    </g>
  </g>
</svg>